<svg xmlns="http://www.w3.org/2000/svg" viewBox="0 0 32 32" fill="none">
  <defs>
    <linearGradient id="g" x1="0" y1="0" x2="32" y2="32" gradientUnits="userSpaceOnUse">
      <stop offset="0" stop-color="#2563eb"/>
      <stop offset="1" stop-color="#7c3aed"/>
    </linearGradient>
  </defs>
  <rect width="32" height="32" rx="8" fill="url(#g)"/>
  <g stroke="#ffffff" stroke-width="1.8" stroke-linecap="round">
    <path d="M16 8v16"/>
    <path d="M9.5 11.5l13 9"/>
    <path d="M22.5 11.5l-13 9"/>
    <path d="M16 8l-2 2M16 8l2 2"/>
    <path d="M16 24l-2-2M16 24l2-2"/>
    <path d="M9.5 11.5l2.6.4M9.5 11.5l.9-2.6"/>
    <path d="M22.5 20.5l-2.6-.4M22.5 20.5l-.9 2.6"/>
    <path d="M22.5 11.5l-2.6.4M22.5 11.5l-.9-2.6"/>
    <path d="M9.5 20.5l2.6-.4M9.5 20.5l.9 2.6"/>
  </g>
</svg>
